{"asset":{"version":"2.0","generator":"VECTARY"},"nodes":[{"translation":[0,0.2,4.263256414560601e-17],"scale":[0.001,0.001,0.001],"rotation":[-0.7071067811865475,0,0,0.7071067811865476],"name":"Point Light","extensions":{"KHR_lights_punctual":{"light":0}}},{"translation":[0.024745388999999996,0.041503455,-0.023523881],"scale":[0.001,0.001,0.001],"rotation":[-0.16163906875981562,0.8379707786207558,0.3822641761434954,0.35433301464232597],"name":"Directional Light","extensions":{"KHR_lights_punctual":{"light":1}}},{"translation":[0.013926116,0.00021924799999999993,0.0004878990000000001],"scale":[0.000882362,0.0008823620000000001,0.0008823620000000001],"rotation":[-0.7248203906044236,0,0,0.6889378791763818],"name":"eynak","children":[3]},{"translation":[-13.926116,0.070024,-0.109624],"scale":[1,1,1],"rotation":[0.7071067811865475,0,0,0.7071067811865476],"name":"Layer 04","children":[4,5]},{"translation":[0,0,0],"scale":[1,1,1],"rotation":[0,0,0,1],"name":"Object_4","mesh":0},{"translation":[0,0,0],"scale":[1,1,1],"rotation":[0,0,0,1],"name":"Object_5","mesh":1}],"extensions":{"KHR_lights_punctual":{"lights":[{"name":"Point Light","type":"point","intensity":0.4,"range":10000,"color":[1,1,1]},{"name":"Directional Light","type":"directional","intensity":3.2,"color":[1,1,1]}]}},"materials":[{"pbrMetallicRoughness":{"baseColorFactor":[0.0012017395224384016,0.0012017395224384016,0.001433134589671864,0.98],"metallicFactor":0,"roughnessFactor":0.2},"name":"Emily","emissiveFactor":[0,0,0],"extensions":{},"alphaMode":"BLEND","doubleSided":false},{"pbrMetallicRoughness":{"baseColorFactor":[0.0012017395224384016,0.0012017395224384016,0.001433134589671864,0.98],"metallicFactor":0,"roughnessFactor":0.2},"name":"Emily","emissiveFactor":[0,0,0],"extensions":{},"alphaMode":"BLEND","doubleSided":false}],"meshes":[{"primitives":[{"mode":4,"attributes":{"POSITION":1,"NORMAL":2,"TEXCOORD_0":3},"material":0,"indices":0}]},{"primitives":[{"mode":4,"attributes":{"POSITION":5,"NORMAL":6,"TEXCOORD_0":7},"material":1,"indices":4}]}],"accessors":[{"bufferView":0,"byteOffset":0,"componentType":5125,"count":2106,"type":"SCALAR"},{"bufferView":1,"byteOffset":0,"componentType":5126,"count":508,"max":[18.291675567626953,3.487086534500122,5.035197734832764],"min":[14.762187004089355,0.31983137130737305,4.255627155303955],"type":"VEC3"},{"bufferView":2,"byteOffset":0,"componentType":5126,"count":508,"type":"VEC3"},{"bufferView":3,"byteOffset":0,"componentType":5126,"count":508,"type":"VEC2"},{"bufferView":4,"byteOffset":0,"componentType":5125,"count":2106,"type":"SCALAR"},{"bufferView":5,"byteOffset":0,"componentType":5126,"count":508,"max":[13.090041160583496,3.487086534500122,5.035197734832764],"min":[9.560552597045898,0.31983137130737305,4.255627155303955],"type":"VEC3"},{"bufferView":6,"byteOffset":0,"componentType":5126,"count":508,"type":"VEC3"},{"bufferView":7,"byteOffset":0,"componentType":5126,"count":508,"type":"VEC2"}],"bufferViews":[{"buffer":0,"byteOffset":0,"byteLength":8424,"target":34963},{"buffer":0,"byteOffset":8424,"byteLength":6096,"target":34962},{"buffer":0,"byteOffset":14520,"byteLength":6096,"target":34962},{"buffer":0,"byteOffset":20616,"byteLength":4064,"target":34962},{"buffer":0,"byteOffset":24680,"byteLength":8424,"target":34963},{"buffer":0,"byteOffset":33104,"byteLength":6096,"target":34962},{"buffer":0,"byteOffset":39200,"byteLength":6096,"target":34962},{"buffer":0,"byteOffset":45296,"byteLength":4064,"target":34962}],"scene":0,"scenes":[{"nodes":[0,1,2],"name":"eynak"}],"extensionsUsed":["KHR_texture_transform","KHR_lights_punctual"],"extensionsRequired":["KHR_lights_punctual"],"buffers":[{"byteLength":49360,"uri":"eynak.bin"}]}